<svg width="139" height="32" viewBox="0 0 139 32" fill="none" xmlns="http://www.w3.org/2000/svg">
<path d="M0 0.514918C0 0.230537 0.230254 0 0.514286 0H53.4857C53.7697 0 54 0.230537 54 0.514918V7.3054C54 7.58978 53.7697 7.82031 53.4857 7.82031H0.514286C0.230254 7.82031 0 7.58978 0 7.3054V0.514918Z" fill="#4776F3"/>
<path d="M2.57143 9.62253C2.57143 9.33815 2.80168 9.10761 3.08571 9.10761H50.9143C51.1983 9.10761 51.4286 9.33815 51.4286 9.62253V13.8062C51.4286 14.0906 51.1983 14.3212 50.9143 14.3212H3.08571C2.80168 14.3212 2.57143 14.0906 2.57143 13.8062V9.62253Z" fill="#4776F3"/>
<path d="M5.14286 16.1234C5.14286 15.839 5.37311 15.6084 5.65714 15.6084H48.3429C48.6269 15.6084 48.8571 15.839 48.8571 16.1234V18.5692C48.8571 18.8536 48.6269 19.0841 48.3429 19.0841H5.65714C5.37311 19.0841 5.14286 18.8536 5.14286 18.5692V16.1234Z" fill="#4776F3"/>
<path d="M7.71429 20.8864C7.71429 20.602 7.94454 20.3714 8.22857 20.3714H45.7714C46.0555 20.3714 46.2857 20.602 46.2857 20.8864V22.1737C46.2857 22.458 46.0555 22.6886 45.7714 22.6886H8.22857C7.94454 22.6886 7.71429 22.458 7.71429 22.1737V20.8864Z" fill="#4776F3"/>
<path d="M10.2857 24.4908C10.2857 24.2064 10.516 23.9759 10.8 23.9759H43.2C43.484 23.9759 43.7143 24.2064 43.7143 24.4908V25.0057C43.7143 25.2901 43.484 25.5206 43.2 25.5206H10.8C10.516 25.5206 10.2857 25.2901 10.2857 25.0057V24.4908Z" fill="#4776F3"/>
<path d="M12.8571 27.3228C12.8571 27.0384 13.0874 26.8079 13.3714 26.8079H40.6286C40.9126 26.8079 41.1429 27.0384 41.1429 27.3228V27.5159C41.1429 27.8003 40.9126 28.0308 40.6286 28.0308H13.3714C13.0874 28.0308 12.8571 27.8003 12.8571 27.5159V27.3228Z" fill="#4776F3"/>
<path d="M15.4286 29.7258C15.4286 29.5006 15.6109 29.3181 15.8357 29.3181H38.1643C38.3891 29.3181 38.5714 29.5006 38.5714 29.7258C38.5714 29.9509 38.3891 30.1334 38.1643 30.1334H15.8357C15.6109 30.1334 15.4286 29.9509 15.4286 29.7258Z" fill="#4776F3"/>
<path d="M18 31.7104C18 31.5504 18.1295 31.4207 18.2893 31.4207H35.7107C35.8705 31.4207 36 31.5504 36 31.7104C36 31.8703 35.8705 32 35.7107 32H18.2893C18.1295 32 18 31.8703 18 31.7104Z" fill="#4776F3"/>
<path d="M83.3312 11.3302C83.255 10.4929 82.9158 9.84205 82.3137 9.37774C81.7191 8.9058 80.8693 8.66984 79.764 8.66984C79.0323 8.66984 78.4225 8.76499 77.9347 8.95528C77.4469 9.14558 77.081 9.40818 76.8371 9.7431C76.5932 10.0704 76.4674 10.4472 76.4598 10.8735C76.4446 11.2236 76.5132 11.5319 76.6656 11.7983C76.8257 12.0647 77.0543 12.3007 77.3516 12.5062C77.6565 12.7041 78.0224 12.8792 78.4492 13.0314C78.8761 13.1836 79.3563 13.3168 79.8898 13.431L81.9021 13.8877C83.0606 14.1389 84.082 14.4738 84.9662 14.8925C85.858 15.3111 86.605 15.8097 87.2071 16.3882C87.8169 16.9667 88.278 17.6327 88.5906 18.3863C88.9031 19.1399 89.0631 19.9848 89.0708 20.921C89.0631 22.3977 88.6896 23.6651 87.9503 24.7231C87.2109 25.7812 86.1476 26.5918 84.7604 27.1551C83.3808 27.7184 81.7153 28 79.764 28C77.8051 28 76.0978 27.7069 74.6419 27.1208C73.1861 26.5347 72.0542 25.6441 71.2462 24.4491C70.4383 23.254 70.0229 21.7431 70 19.9163H75.4194C75.4651 20.6698 75.6671 21.2978 76.0254 21.8002C76.3836 22.3026 76.8752 22.6832 77.5002 22.942C78.1329 23.2008 78.8646 23.3302 79.6954 23.3302C80.4577 23.3302 81.1056 23.2274 81.6391 23.0219C82.1803 22.8164 82.5957 22.5309 82.8853 22.1656C83.175 21.8002 83.3236 21.3815 83.3312 20.9096C83.3236 20.4681 83.1864 20.0913 82.9196 19.7793C82.6529 19.4596 82.2413 19.1855 81.6848 18.9572C81.136 18.7212 80.4348 18.5043 79.5811 18.3064L77.1344 17.7355C75.1069 17.2712 73.51 16.5214 72.3438 15.4862C71.1776 14.4434 70.5983 13.0352 70.606 11.2617C70.5983 9.81541 70.9871 8.54805 71.7722 7.45956C72.5572 6.37108 73.6434 5.52236 75.0307 4.91342C76.4179 4.30447 77.9995 4 79.7755 4C81.5896 4 83.1635 4.30828 84.4974 4.92483C85.8389 5.53378 86.8794 6.39011 87.6187 7.49382C88.3581 8.59753 88.7354 9.87631 88.7506 11.3302H83.3312Z" fill="black"/>
<path d="M97.5886 4.3197V27.7031H91.9291V4.3197H97.5886Z" fill="black"/>
<path d="M101.141 27.7031V4.3197H117.125V8.90961H106.801V13.705H116.108V18.3064H106.801V27.7031H101.141Z" fill="black"/>
<path d="M119.209 8.90961V4.3197H139V8.90961H131.9V27.7031H126.32V8.90961H119.209Z" fill="black"/>
</svg>
